<svg xmlns="http://www.w3.org/2000/svg" viewBox="0 0 566.93 528.69"><defs><style>.cls-1{fill:#ff8c00;}.cls-2{fill:#0e0f34;}</style></defs><g id="Calque_2" data-name="Calque 2"><g id="Calque_1-2" data-name="Calque 1"><path class="cls-1" d="M566.93,334.55c-2.88,1.55-6,1.18-9.08,1.12a975,975,0,0,0-133.44,6.13,1290.2,1290.2,0,0,0-164.25,30.62c-5.65,1.42-11.29,3.07-17,3.93-4.82.71-7.46,3.19-9.66,7.29-16.73,31.23-36.61,60.19-62.28,84.83-34.65,33.28-75.79,53.12-123.55,59.06-.94.11-2,0-2.37,1.16H32.4c-1.84-2.19-4.63-1.54-6.94-2.08C3.33,521.42-5.76,503,3.74,482.43c7.82-16.94,20.83-29.4,35.09-40.77,34.88-27.8,75-45.46,116.57-60.36,20-7.16,40.31-13.1,60.85-18.29a14.4,14.4,0,0,0,10.29-8.48c24-50.68,40.9-103.74,53.84-158.16.89-3.73,3.08-7.23,2.31-11.32,3.76-9.85,4.34-20.42,6.9-30.55,6.14-29.54,10.91-59.31,14.69-89.22,2.49-19.7,4.25-39.48,6.37-59.22.27-2.55-.57-6.06,3.61-6.06s3.46,3.4,3.55,6c1.72,53.11-2.41,105.8-11.36,158.15-.39,2.3-.64,4.62-.95,6.94l-6.3,27.62a5.71,5.71,0,0,0,.87,4.4c-2.2.2-1.95,2-2.3,3.46-11.31,48.38-26.21,95.58-46.62,141-.93,2.07-3.16,4.72-1.83,6.41,1.64,2.07,4.7.32,7.11-.18,37.94-7.85,76.21-13.23,114.75-17.25,44.56-4.65,89.19-6.3,133.93-7,18.31-.29,36.58.83,54.87.34a9.83,9.83,0,0,1,6.95,2.36ZM38.63,508.76c5.38-.46,10.67-.59,15.84-1.43a163.75,163.75,0,0,0,18.22-4c62.59-17.59,103.66-60.63,135.4-114.67.57-1,1.6-2,.5-3.09s-2.22,0-3.26.3c-10.62,3.15-21.31,6.09-31.81,9.61-39.61,13.26-78,29.2-112.41,53.36C47.22,458.64,34,469.4,24.81,484c-3.36,5.31-7.65,11.45-4.27,17.88C24.22,508.82,32.05,508,38.63,508.76Z"/><path class="cls-2" d="M289.59,154.5c-2.56,10.13-3.14,20.7-6.9,30.55A965.91,965.91,0,0,0,147.39,71.38c3.37-2.35,5.57-.89,7.8-.25,50.48,14.49,94.36,39.78,129.69,79.11A59.72,59.72,0,0,0,289.59,154.5Z"/><path class="cls-2" d="M300.07,203.14a5.71,5.71,0,0,1-.87-4.4l6.3-27.62a819.9,819.9,0,0,1,98.32,129.44c1.42,2.32,2.82,4.66,4.11,7.05,2.11,3.89,3,7.82-1.35,10.8-4.58,3.1-8,1-10.89-2.88q-19.38-26-40.33-50.71C337.56,243.7,319.35,222.94,300.07,203.14Z"/><path class="cls-2" d="M409.42,363.78c16.19,0,26,6.4,28.47,18.1s-3.44,23.54-14.85,29.63c-.69.37-1.38.72-2.09,1.05-14.87,7-17.48,5.49-18.9-10.54-.72-8.14-1.76-16.25-2.38-24.39-.24-3.15-2.07-5.39-3.41-7.91-1.53-2.89-1.65-4.57,2.34-4.91S406.29,363.54,409.42,363.78Zm18.86,21.72c0-6.79-5.49-12.55-14.68-13.35-3.4-.29-5.12.44-4.6,4.33,1.16,8.68,2.22,17.37,3.06,26.09.41,4.23,2.3,4.2,5.33,2.57C424.33,401.41,428.16,395.77,428.28,385.5Z"/><path class="cls-2" d="M348.24,400.94a33.55,33.55,0,0,1-1.47,12.13c-2.34,7.52-8.77,11.92-17.39,12.15-7.53.21-12.14-3.19-15.06-11.25-2.82-7.77-3.36-15.94-4.17-24.06a50.29,50.29,0,0,0-.75-5.77c-.44-1.94-3-3.87-1-5.76,2.3-2.15,5.55-2.73,8.71-2.83,2.54-.09,1.84,2.05,2,3.39.75,7.15,1.38,14.32,2.09,21.47a30.3,30.3,0,0,0,2.86,10.65c1.36,2.75,3.25,4.92,6.72,4.68s5.6-2.62,6.6-5.72a27.78,27.78,0,0,0,1.19-11.56c-.82-7.53-1.91-15-2.74-22.58-.2-1.89-2.58-4.94,1.73-5.22,3.07-.19,6.91-1.43,7.68,3.64A227.32,227.32,0,0,1,348.24,400.94Z"/><path class="cls-2" d="M371.6,383.15c2.54-4.87,4.46-8.67,6.49-12.4a7,7,0,0,1,10.66-1.84c1.89,1.68.22,2.65-.49,3.86-3,5-5.8,10.09-8.91,15-1.68,2.66-1.61,4.64.46,7.17,5.06,6.14,9.47,12.87,15.75,17.9,2,1.62,1.58,2.45-.13,3.93-5.09,4.4-7.66,4.25-11.85-1.1-1.8-2.29-3.51-4.65-5.26-7l-5.55-7.4c-2.64,5.51-5.35,10.34-7.3,15.45s-5.07,5.65-9.62,4.45c-3-.78-4-1.78-1.91-4.68,4.4-6.18,7.53-13.11,11.24-19.71,1.59-2.82,1.61-4.89-.61-7.21-4.18-4.37-5.95-11-12.82-12.85-2.57-.69-1.36-3-.6-4.31,2-3.32,11-3.28,13.25,0S368.87,379.06,371.6,383.15Z"/><path class="cls-2" d="M441.11,361.76c8.93-2.05,17.86-2.74,26.73-3.69,1.62-.17,4.82-2,4.78,1.83,0,2.62-.51,5.58-4.22,6-3.28.38-6.54,1-9.81,1.42-5.93.84-3,5-3.14,8.13-.15,3.93,2.18,3.76,4.92,3.22a22,22,0,0,1,5.19-.67c1.58.08,4.32-1.77,4.41,1.71.06,2.5-.12,5.22-3.4,6-.76.17-1.55.21-2.31.34-8.05,1.37-7.82,1.34-6.72,9.6.49,3.68,1.8,5.05,5.48,4.63,5.17-.6,10.37-.9,15.71-1.33C478.66,405,476,408,470,408.31c-4.85.26-9.69.92-14.49,1.64-4.28.64-6.6-.51-6.71-5.28-.09-4.07-.81-8.13-1.16-12.2a9.43,9.43,0,0,0-1.6-4.85c-1.66-2.41-5.56-4.45-.2-8.09,1.93-1.3.24-7.33-1.55-10.87C443.24,366.6,441.65,364.8,441.11,361.76Z"/><path class="cls-2" d="M512.19,360.18c-.37,2.69,1.24,6.05-2.92,7.31-2.08.63-3.78,2-4.59-1.65-.76-3.44-3.52-3.73-6.47-2.35-6.12,2.85-8.73,8.14-9.41,14.41s.07,12.6,5.56,16.94c4.41,3.49,11.76,2.45,17.07-2.44,2.5-2.29,4.13-4.36,7.27-.52s1.28,5.86-1.69,8a29.38,29.38,0,0,1-20.27,5.82c-11.15-1-18.7-11.26-18.12-24.56.73-16.8,11.72-27.79,28.47-28.8C513.93,351.92,511.74,356.78,512.19,360.18Z"/><path class="cls-2" d="M308.45,417.18a43.47,43.47,0,0,0,0,5.27c.63,4.32-1.14,5.2-5.24,4.64-6.66-.91-13.07,1.61-19.55,2.61-5.93.92-7.45-1.15-7.82-6.41-.64-9.12-1.62-18.22-2.63-27.31-.43-3.81-.4-7.77-2.67-11.2-.77-1.18-2.48-2.72-.88-4.06a13.37,13.37,0,0,1,9.81-3c2.08.16,1.83,2.2,2,3.69,1.14,11,2.22,22.08,3.38,33.1.61,5.74,2.4,6.82,7.86,4.91,5.21-1.82,6.5-6.21,7.23-11,.26-1.68-.49-4.31,2.85-3.79,2.38.36,4.73.65,4.95,3.8C308,411.76,308.28,415.06,308.45,417.18Z"/></g></g></svg>